<svg width="22" height="22" viewBox="0 0 22 22" fill="none" xmlns="http://www.w3.org/2000/svg">
<path d="M19.7364 6.67391L8.73642 17.6739C8.67257 17.7378 8.59675 17.7885 8.51329 17.8231C8.42983 17.8577 8.34036 17.8755 8.25002 17.8755C8.15967 17.8755 8.07021 17.8577 7.98674 17.8231C7.90328 17.7885 7.82746 17.7378 7.76361 17.6739L2.95111 12.8614C2.82211 12.7324 2.74963 12.5574 2.74963 12.375C2.74963 12.1926 2.82211 12.0176 2.95111 11.8886C3.08011 11.7596 3.25508 11.6871 3.43752 11.6871C3.61995 11.6871 3.79492 11.7596 3.92392 11.8886L8.25002 16.2155L18.7636 5.70109C18.8926 5.57209 19.0676 5.49962 19.25 5.49962C19.4325 5.49962 19.6074 5.57209 19.7364 5.70109C19.8654 5.8301 19.9379 6.00506 19.9379 6.1875C19.9379 6.36994 19.8654 6.5449 19.7364 6.67391Z" fill="#9E78CF"/>
</svg>
